<svg id="Layer_1" data-name="Layer 1" xmlns="http://www.w3.org/2000/svg" width="150.24" height="150.24" viewBox="0 0 150.24 150.24"><defs><style>.cls-1{fill:#fff;}</style></defs><rect width="2.83" height="2.83"/><rect x="2.83" width="2.83" height="2.83"/><rect x="5.67" width="2.83" height="2.83"/><rect x="8.5" width="2.83" height="2.83"/><rect x="11.34" width="2.83" height="2.83"/><rect x="14.17" width="2.83" height="2.83"/><rect x="17.01" width="2.83" height="2.83"/><rect x="22.68" width="2.83" height="2.83"/><rect x="25.51" width="2.83" height="2.83"/><rect x="36.85" width="2.83" height="2.83"/><rect x="39.69" width="2.83" height="2.83"/><rect x="42.52" width="2.83" height="2.83"/><rect x="48.19" width="2.83" height="2.83"/><rect x="65.2" width="2.83" height="2.83"/><rect x="76.54" width="2.83" height="2.83"/><rect x="90.71" width="2.83" height="2.83"/><rect x="96.38" width="2.83" height="2.83"/><rect x="99.21" width="2.83" height="2.83"/><rect x="104.88" width="2.83" height="2.83"/><rect x="110.55" width="2.83" height="2.83"/><rect x="113.39" width="2.83" height="2.83"/><rect x="119.06" width="2.83" height="2.83"/><rect x="130.39" width="2.83" height="2.83"/><rect x="133.23" width="2.83" height="2.83"/><rect x="136.06" width="2.83" height="2.83"/><rect x="138.9" width="2.83" height="2.83"/><rect x="141.73" width="2.83" height="2.83"/><rect x="144.57" width="2.83" height="2.83"/><rect x="147.4" width="2.83" height="2.83"/><rect y="2.83" width="2.83" height="2.83"/><rect x="17.01" y="2.83" width="2.83" height="2.83"/><rect x="25.51" y="2.83" width="2.83" height="2.83"/><rect x="28.35" y="2.83" width="2.83" height="2.83"/><rect x="31.18" y="2.83" width="2.83" height="2.83"/><rect x="34.02" y="2.83" width="2.83" height="2.83"/><rect x="70.87" y="2.83" width="2.83" height="2.83"/><rect x="82.2" y="2.83" width="2.83" height="2.83"/><rect x="85.04" y="2.83" width="2.83" height="2.83"/><rect x="87.87" y="2.83" width="2.83" height="2.83"/><rect x="90.71" y="2.83" width="2.83" height="2.83"/><rect x="93.54" y="2.83" width="2.83" height="2.83"/><rect x="96.38" y="2.83" width="2.83" height="2.83"/><rect x="102.05" y="2.83" width="2.83" height="2.83"/><rect x="104.88" y="2.83" width="2.83" height="2.83"/><rect x="113.39" y="2.83" width="2.83" height="2.83"/><rect x="119.06" y="2.83" width="2.83" height="2.83"/><rect x="121.89" y="2.83" width="2.83" height="2.83"/><rect x="130.39" y="2.83" width="2.83" height="2.83"/><rect x="147.4" y="2.83" width="2.83" height="2.83"/><rect y="5.67" width="2.83" height="2.83"/><rect x="5.67" y="5.67" width="2.83" height="2.83"/><rect x="8.5" y="5.67" width="2.83" height="2.83"/><rect x="11.34" y="5.67" width="2.83" height="2.83"/><rect x="17.01" y="5.67" width="2.83" height="2.83"/><rect x="31.18" y="5.67" width="2.83" height="2.83"/><rect x="42.52" y="5.67" width="2.83" height="2.83"/><rect x="45.35" y="5.67" width="2.83" height="2.83"/><rect x="68.03" y="5.67" width="2.83" height="2.83"/><rect x="70.87" y="5.67" width="2.83" height="2.83"/><rect x="73.7" y="5.67" width="2.83" height="2.83"/><rect x="82.2" y="5.67" width="2.83" height="2.83"/><rect x="85.04" y="5.67" width="2.83" height="2.83"/><rect x="87.87" y="5.67" width="2.83" height="2.83"/><rect x="93.54" y="5.67" width="2.83" height="2.83"/><rect x="99.21" y="5.67" width="2.83" height="2.83"/><rect x="102.05" y="5.67" width="2.83" height="2.83"/><rect x="104.88" y="5.67" width="2.83" height="2.83"/><rect x="107.72" y="5.67" width="2.83" height="2.83"/><rect x="113.39" y="5.67" width="2.83" height="2.83"/><rect x="116.22" y="5.67" width="2.83" height="2.83"/><rect x="121.89" y="5.67" width="2.83" height="2.83"/><rect x="130.39" y="5.67" width="2.83" height="2.83"/><rect x="136.06" y="5.67" width="2.83" height="2.83"/><rect x="138.9" y="5.67" width="2.83" height="2.83"/><rect x="141.73" y="5.67" width="2.83" height="2.83"/><rect x="147.4" y="5.67" width="2.83" height="2.83"/><rect y="8.5" width="2.83" height="2.83"/><rect x="5.67" y="8.5" width="2.83" height="2.83"/><rect x="8.5" y="8.5" width="2.83" height="2.83"/><rect x="11.34" y="8.5" width="2.83" height="2.83"/><rect x="17.01" y="8.5" width="2.83" height="2.83"/><rect x="22.68" y="8.5" width="2.83" height="2.83"/><rect x="28.35" y="8.5" width="2.83" height="2.83"/><rect x="42.52" y="8.5" width="2.83" height="2.83"/><rect x="48.19" y="8.5" width="2.83" height="2.83"/><rect x="56.69" y="8.5" width="2.83" height="2.83"/><rect x="62.36" y="8.5" width="2.83" height="2.83"/><rect x="68.03" y="8.5" width="2.83" height="2.83"/><rect x="76.54" y="8.5" width="2.83" height="2.83"/><rect x="82.2" y="8.5" width="2.83" height="2.83"/><rect x="85.04" y="8.5" width="2.83" height="2.83"/><rect x="87.87" y="8.5" width="2.83" height="2.83"/><rect x="99.21" y="8.5" width="2.83" height="2.83"/><rect x="104.88" y="8.5" width="2.83" height="2.83"/><rect x="110.55" y="8.5" width="2.83" height="2.83"/><rect x="119.06" y="8.5" width="2.83" height="2.83"/><rect x="124.72" y="8.5" width="2.83" height="2.83"/><rect x="130.39" y="8.5" width="2.83" height="2.83"/><rect x="136.06" y="8.5" width="2.83" height="2.83"/><rect x="138.9" y="8.5" width="2.83" height="2.83"/><rect x="141.73" y="8.5" width="2.83" height="2.83"/><rect x="147.4" y="8.5" width="2.83" height="2.83"/><rect y="11.34" width="2.83" height="2.83"/><rect x="5.67" y="11.34" width="2.83" height="2.83"/><rect x="8.5" y="11.34" width="2.83" height="2.83"/><rect x="11.34" y="11.34" width="2.83" height="2.83"/><rect x="17.01" y="11.34" width="2.83" height="2.83"/><rect x="22.68" y="11.34" width="2.83" height="2.83"/><rect x="25.51" y="11.34" width="2.83" height="2.83"/><rect x="28.35" y="11.34" width="2.83" height="2.83"/><rect x="31.18" y="11.34" width="2.83" height="2.83"/><rect x="34.02" y="11.34" width="2.83" height="2.83"/><rect x="36.85" y="11.34" width="2.83" height="2.83"/><rect x="42.52" y="11.34" width="2.83" height="2.83"/><rect x="45.35" y="11.34" width="2.83" height="2.83"/><rect x="48.19" y="11.34" width="2.83" height="2.83"/><rect x="51.02" y="11.34" width="2.83" height="2.83"/><rect x="56.69" y="11.34" width="2.83" height="2.83"/><rect x="59.53" y="11.34" width="2.83" height="2.83"/><rect x="62.36" y="11.34" width="2.83" height="2.83"/><rect x="65.2" y="11.34" width="2.83" height="2.83"/><rect x="68.03" y="11.34" width="2.83" height="2.83"/><rect x="70.87" y="11.34" width="2.83" height="2.83"/><rect x="73.7" y="11.34" width="2.83" height="2.83"/><rect x="76.54" y="11.34" width="2.83" height="2.83"/><rect x="79.37" y="11.34" width="2.83" height="2.83"/><rect x="82.2" y="11.34" width="2.83" height="2.83"/><rect x="85.04" y="11.34" width="2.83" height="2.83"/><rect x="87.87" y="11.34" width="2.83" height="2.83"/><rect x="90.71" y="11.34" width="2.83" height="2.83"/><rect x="93.54" y="11.34" width="2.83" height="2.83"/><rect x="104.88" y="11.34" width="2.83" height="2.83"/><rect x="107.72" y="11.34" width="2.83" height="2.83"/><rect x="110.55" y="11.34" width="2.83" height="2.83"/><rect x="113.39" y="11.34" width="2.83" height="2.83"/><rect x="119.06" y="11.34" width="2.83" height="2.83"/><rect x="130.39" y="11.34" width="2.83" height="2.83"/><rect x="136.06" y="11.34" width="2.83" height="2.83"/><rect x="138.9" y="11.34" width="2.83" height="2.83"/><rect x="141.73" y="11.34" width="2.83" height="2.83"/><rect x="147.4" y="11.34" width="2.83" height="2.83"/><rect y="14.17" width="2.83" height="2.83"/><rect x="17.01" y="14.17" width="2.83" height="2.83"/><rect x="22.68" y="14.17" width="2.83" height="2.83"/><rect x="31.18" y="14.17" width="2.83" height="2.83"/><rect x="34.02" y="14.17" width="2.83" height="2.83"/><rect x="36.85" y="14.17" width="2.83" height="2.83"/><rect x="39.69" y="14.17" width="2.83" height="2.83"/><rect x="42.52" y="14.17" width="2.83" height="2.83"/><rect x="45.35" y="14.17" width="2.83" height="2.83"/><rect x="62.36" y="14.17" width="2.83" height="2.83"/><rect x="68.03" y="14.17" width="2.83" height="2.83"/><rect x="79.37" y="14.17" width="2.83" height="2.83"/><rect x="85.04" y="14.17" width="2.83" height="2.83"/><rect x="87.87" y="14.17" width="2.83" height="2.83"/><rect x="102.05" y="14.17" width="2.83" height="2.83"/><rect x="107.72" y="14.17" width="2.83" height="2.83"/><rect x="116.22" y="14.17" width="2.83" height="2.83"/><rect x="119.06" y="14.17" width="2.83" height="2.83"/><rect x="130.39" y="14.17" width="2.83" height="2.83"/><rect x="147.4" y="14.17" width="2.83" height="2.83"/><rect y="17.01" width="2.83" height="2.83"/><rect x="2.83" y="17.01" width="2.83" height="2.83"/><rect x="5.67" y="17.01" width="2.83" height="2.83"/><rect x="8.5" y="17.01" width="2.83" height="2.83"/><rect x="11.34" y="17.01" width="2.83" height="2.83"/><rect x="14.17" y="17.01" width="2.83" height="2.83"/><rect x="17.01" y="17.01" width="2.83" height="2.83"/><rect x="22.68" y="17.01" width="2.83" height="2.83"/><rect x="28.35" y="17.01" width="2.83" height="2.83"/><rect x="34.02" y="17.01" width="2.83" height="2.83"/><rect x="39.69" y="17.01" width="2.83" height="2.83"/><rect x="45.35" y="17.01" width="2.83" height="2.83"/><rect x="51.02" y="17.01" width="2.83" height="2.83"/><rect x="56.69" y="17.01" width="2.83" height="2.83"/><rect x="62.36" y="17.01" width="2.83" height="2.83"/><rect x="68.03" y="17.01" width="2.83" height="2.83"/><rect x="73.7" y="17.01" width="2.83" height="2.83"/><rect x="79.37" y="17.01" width="2.83" height="2.83"/><rect x="85.04" y="17.01" width="2.83" height="2.83"/><rect x="90.71" y="17.01" width="2.83" height="2.83"/><rect x="96.38" y="17.01" width="2.83" height="2.83"/><rect x="102.05" y="17.01" width="2.83" height="2.83"/><rect x="107.72" y="17.01" width="2.83" height="2.83"/><rect x="113.39" y="17.01" width="2.83" height="2.83"/><rect x="119.06" y="17.01" width="2.83" height="2.83"/><rect x="124.72" y="17.01" width="2.83" height="2.83"/><rect x="130.39" y="17.01" width="2.83" height="2.83"/><rect x="133.23" y="17.01" width="2.83" height="2.83"/><rect x="136.06" y="17.01" width="2.83" height="2.83"/><rect x="138.9" y="17.01" width="2.83" height="2.83"/><rect x="141.73" y="17.01" width="2.83" height="2.83"/><rect x="144.57" y="17.01" width="2.83" height="2.83"/><rect x="147.4" y="17.01" width="2.83" height="2.83"/><rect x="22.68" y="19.84" width="2.83" height="2.83"/><rect x="34.02" y="19.84" width="2.83" height="2.83"/><rect x="39.69" y="19.84" width="2.83" height="2.83"/><rect x="42.52" y="19.84" width="2.83" height="2.83"/><rect x="48.19" y="19.84" width="2.83" height="2.83"/><rect x="51.02" y="19.84" width="2.83" height="2.83"/><rect x="53.86" y="19.84" width="2.83" height="2.83"/><rect x="68.03" y="19.84" width="2.83" height="2.83"/><rect x="79.37" y="19.84" width="2.83" height="2.83"/><rect x="82.2" y="19.84" width="2.83" height="2.83"/><rect x="87.87" y="19.84" width="2.83" height="2.83"/><rect x="93.54" y="19.84" width="2.83" height="2.83"/><rect x="96.38" y="19.84" width="2.83" height="2.83"/><rect x="113.39" y="19.84" width="2.83" height="2.83"/><rect x="116.22" y="19.84" width="2.83" height="2.83"/><rect x="119.06" y="19.84" width="2.83" height="2.83"/><rect y="22.68" width="2.83" height="2.83"/><rect x="11.34" y="22.68" width="2.83" height="2.83"/><rect x="17.01" y="22.68" width="2.83" height="2.83"/><rect x="19.84" y="22.68" width="2.83" height="2.83"/><rect x="22.68" y="22.68" width="2.83" height="2.83"/><rect x="25.51" y="22.68" width="2.83" height="2.83"/><rect x="34.02" y="22.68" width="2.83" height="2.83"/><rect x="48.19" y="22.68" width="2.83" height="2.83"/><rect x="51.02" y="22.68" width="2.83" height="2.83"/><rect x="65.2" y="22.68" width="2.83" height="2.83"/><rect x="68.03" y="22.68" width="2.83" height="2.83"/><rect x="70.87" y="22.68" width="2.83" height="2.83"/><rect x="73.7" y="22.68" width="2.83" height="2.83"/><rect x="76.54" y="22.68" width="2.83" height="2.83"/><rect x="79.37" y="22.68" width="2.83" height="2.83"/><rect x="82.2" y="22.68" width="2.83" height="2.83"/><rect x="85.04" y="22.68" width="2.83" height="2.83"/><rect x="87.87" y="22.68" width="2.83" height="2.83"/><rect x="90.71" y="22.68" width="2.83" height="2.83"/><rect x="93.54" y="22.68" width="2.83" height="2.83"/><rect x="99.21" y="22.68" width="2.83" height="2.83"/><rect x="102.05" y="22.68" width="2.83" height="2.83"/><rect x="110.55" y="22.68" width="2.83" height="2.83"/><rect x="127.56" y="22.68" width="2.83" height="2.83"/><rect x="130.39" y="22.68" width="2.83" height="2.83"/><rect x="133.23" y="22.68" width="2.83" height="2.83"/><rect x="136.06" y="22.68" width="2.83" height="2.83"/><rect x="138.9" y="22.68" width="2.83" height="2.83"/><rect x="147.4" y="22.68" width="2.83" height="2.83"/><rect x="2.83" y="25.51" width="2.83" height="2.83"/><rect x="5.67" y="25.51" width="2.83" height="2.83"/><rect x="8.5" y="25.51" width="2.83" height="2.83"/><rect x="19.84" y="25.51" width="2.83" height="2.83"/><rect x="22.68" y="25.51" width="2.83" height="2.83"/><rect x="25.51" y="25.51" width="2.83" height="2.83"/><rect x="36.85" y="25.51" width="2.83" height="2.83"/><rect x="39.69" y="25.51" width="2.83" height="2.83"/><rect x="42.52" y="25.51" width="2.83" height="2.83"/><rect x="45.35" y="25.51" width="2.83" height="2.83"/><rect x="48.19" y="25.51" width="2.83" height="2.83"/><rect x="51.02" y="25.51" width="2.83" height="2.83"/><rect x="53.86" y="25.51" width="2.83" height="2.83"/><rect x="56.69" y="25.51" width="2.83" height="2.83"/><rect x="68.03" y="25.51" width="2.83" height="2.83"/><rect x="70.87" y="25.51" width="2.83" height="2.83"/><rect x="76.54" y="25.51" width="2.83" height="2.83"/><rect x="90.71" y="25.51" width="2.83" height="2.83"/><rect x="93.54" y="25.51" width="2.83" height="2.83"/><rect x="102.05" y="25.51" width="2.83" height="2.83"/><rect x="104.88" y="25.51" width="2.83" height="2.83"/><rect x="107.72" y="25.51" width="2.83" height="2.83"/><rect x="119.06" y="25.51" width="2.83" height="2.83"/><rect x="124.72" y="25.51" width="2.83" height="2.83"/><rect x="136.06" y="25.51" width="2.83" height="2.83"/><rect x="138.9" y="25.51" width="2.83" height="2.83"/><rect x="144.57" y="25.51" width="2.83" height="2.83"/><rect y="28.35" width="2.83" height="2.83"/><rect x="14.17" y="28.35" width="2.83" height="2.83"/><rect x="17.01" y="28.35" width="2.83" height="2.83"/><rect x="19.84" y="28.35" width="2.83" height="2.83"/><rect x="22.68" y="28.35" width="2.83" height="2.83"/><rect x="25.51" y="28.35" width="2.83" height="2.83"/><rect x="34.02" y="28.35" width="2.83" height="2.83"/><rect x="42.52" y="28.35" width="2.83" height="2.83"/><rect x="51.02" y="28.35" width="2.83" height="2.83"/><rect x="59.53" y="28.35" width="2.83" height="2.83"/><rect x="79.37" y="28.35" width="2.83" height="2.83"/><rect x="82.2" y="28.35" width="2.83" height="2.83"/><rect x="99.21" y="28.35" width="2.83" height="2.83"/><rect x="102.05" y="28.35" width="2.83" height="2.83"/><rect x="107.72" y="28.35" width="2.83" height="2.83"/><rect x="110.55" y="28.35" width="2.83" height="2.83"/><rect x="113.39" y="28.35" width="2.83" height="2.83"/><rect x="119.06" y="28.35" width="2.83" height="2.83"/><rect x="121.89" y="28.35" width="2.83" height="2.83"/><rect x="124.72" y="28.35" width="2.83" height="2.83"/><rect x="133.23" y="28.35" width="2.83" height="2.83"/><rect x="138.9" y="28.35" width="2.83" height="2.83"/><rect x="141.73" y="28.35" width="2.83" height="2.83"/><rect x="147.4" y="28.35" width="2.83" height="2.83"/><rect y="31.18" width="2.83" height="2.83"/><rect x="2.83" y="31.18" width="2.83" height="2.83"/><rect x="5.67" y="31.18" width="2.83" height="2.83"/><rect x="11.34" y="31.18" width="2.83" height="2.83"/><rect x="19.84" y="31.18" width="2.83" height="2.83"/><rect x="25.51" y="31.18" width="2.83" height="2.83"/><rect x="31.18" y="31.18" width="2.83" height="2.83"/><rect x="34.02" y="31.18" width="2.83" height="2.83"/><rect x="36.85" y="31.18" width="2.83" height="2.83"/><rect x="39.69" y="31.18" width="2.83" height="2.83"/><rect x="42.52" y="31.18" width="2.83" height="2.83"/><rect x="45.35" y="31.18" width="2.83" height="2.83"/><rect x="48.19" y="31.18" width="2.83" height="2.83"/><rect x="56.69" y="31.18" width="2.83" height="2.83"/><rect x="62.36" y="31.18" width="2.83" height="2.83"/><rect x="65.2" y="31.18" width="2.83" height="2.83"/><rect x="68.03" y="31.18" width="2.83" height="2.83"/><rect x="70.87" y="31.18" width="2.83" height="2.83"/><rect x="76.54" y="31.18" width="2.83" height="2.83"/><rect x="79.37" y="31.18" width="2.83" height="2.83"/><rect x="85.04" y="31.18" width="2.83" height="2.83"/><rect x="93.54" y="31.18" width="2.83" height="2.83"/><rect x="96.38" y="31.18" width="2.83" height="2.83"/><rect x="99.21" y="31.18" width="2.83" height="2.83"/><rect x="110.55" y="31.18" width="2.83" height="2.83"/><rect x="116.22" y="31.18" width="2.83" height="2.83"/><rect x="119.06" y="31.18" width="2.83" height="2.83"/><rect x="127.56" y="31.18" width="2.83" height="2.83"/><rect x="141.73" y="31.18" width="2.83" height="2.83"/><rect x="11.34" y="34.02" width="2.83" height="2.83"/><rect x="17.01" y="34.02" width="2.83" height="2.83"/><rect x="19.84" y="34.02" width="2.83" height="2.83"/><rect x="25.51" y="34.02" width="2.83" height="2.83"/><rect x="31.18" y="34.02" width="2.83" height="2.83"/><rect x="42.52" y="34.02" width="2.83" height="2.83"/><rect x="45.35" y="34.02" width="2.83" height="2.83"/><rect x="51.02" y="34.02" width="2.83" height="2.83"/><rect x="53.86" y="34.02" width="2.83" height="2.83"/><rect x="56.69" y="34.02" width="2.83" height="2.83"/><rect x="65.2" y="34.02" width="2.83" height="2.83"/><rect x="73.7" y="34.02" width="2.83" height="2.83"/><rect x="79.37" y="34.02" width="2.83" height="2.83"/><rect x="87.87" y="34.02" width="2.83" height="2.83"/><rect x="93.54" y="34.02" width="2.83" height="2.83"/><rect x="104.88" y="34.02" width="2.83" height="2.83"/><rect x="107.72" y="34.02" width="2.83" height="2.83"/><rect x="113.39" y="34.02" width="2.83" height="2.83"/><rect x="116.22" y="34.02" width="2.83" height="2.83"/><rect x="124.72" y="34.02" width="2.83" height="2.83"/><rect x="127.56" y="34.02" width="2.83" height="2.83"/><rect x="130.39" y="34.02" width="2.83" height="2.83"/><rect x="133.23" y="34.02" width="2.83" height="2.83"/><rect x="136.06" y="34.02" width="2.83" height="2.83"/><rect x="141.73" y="34.02" width="2.83" height="2.83"/><rect x="2.83" y="36.85" width="2.83" height="2.83"/><rect x="5.67" y="36.85" width="2.83" height="2.83"/><rect x="8.5" y="36.85" width="2.83" height="2.83"/><rect x="19.84" y="36.85" width="2.83" height="2.83"/><rect x="22.68" y="36.85" width="2.83" height="2.83"/><rect x="25.51" y="36.85" width="2.83" height="2.83"/><rect x="28.35" y="36.85" width="2.83" height="2.83"/><rect x="31.18" y="36.85" width="2.83" height="2.83"/><rect x="34.02" y="36.85" width="2.83" height="2.83"/><rect x="36.85" y="36.85" width="2.83" height="2.83"/><rect x="39.69" y="36.85" width="2.83" height="2.83"/><rect x="45.35" y="36.85" width="2.83" height="2.83"/><rect x="48.19" y="36.85" width="2.83" height="2.83"/><rect x="53.86" y="36.85" width="2.83" height="2.83"/><rect x="56.69" y="36.85" width="2.83" height="2.83"/><rect x="68.03" y="36.85" width="2.83" height="2.83"/><rect x="70.87" y="36.85" width="2.83" height="2.83"/><rect x="73.7" y="36.85" width="2.83" height="2.83"/><rect x="82.2" y="36.85" width="2.83" height="2.83"/><rect x="90.71" y="36.85" width="2.83" height="2.83"/><rect x="96.38" y="36.85" width="2.83" height="2.83"/><rect x="99.21" y="36.85" width="2.83" height="2.83"/><rect x="102.05" y="36.85" width="2.83" height="2.83"/><rect x="107.72" y="36.85" width="2.83" height="2.83"/><rect x="110.55" y="36.85" width="2.83" height="2.83"/><rect x="113.39" y="36.85" width="2.83" height="2.83"/><rect x="116.22" y="36.85" width="2.83" height="2.83"/><rect x="119.06" y="36.85" width="2.83" height="2.83"/><rect x="124.72" y="36.85" width="2.83" height="2.83"/><rect x="130.39" y="36.85" width="2.83" height="2.83"/><rect x="136.06" y="36.85" width="2.83" height="2.83"/><rect x="138.9" y="36.85" width="2.83" height="2.83"/><rect x="144.57" y="36.85" width="2.83" height="2.83"/><rect x="147.4" y="36.85" width="2.83" height="2.83"/><rect y="39.69" width="2.83" height="2.83"/><rect x="5.67" y="39.69" width="2.83" height="2.83"/><rect x="8.5" y="39.69" width="2.83" height="2.83"/><rect x="11.34" y="39.69" width="2.83" height="2.83"/><rect x="17.01" y="39.69" width="2.83" height="2.83"/><rect x="22.68" y="39.69" width="2.83" height="2.83"/><rect x="25.51" y="39.69" width="2.83" height="2.83"/><rect x="28.35" y="39.69" width="2.83" height="2.83"/><rect x="34.02" y="39.69" width="2.83" height="2.83"/><rect x="42.52" y="39.69" width="2.83" height="2.83"/><rect x="45.35" y="39.69" width="2.83" height="2.83"/><rect x="48.19" y="39.69" width="2.83" height="2.83"/><rect x="51.02" y="39.69" width="2.83" height="2.83"/><rect x="59.53" y="39.69" width="2.83" height="2.83"/><rect x="62.36" y="39.69" width="2.83" height="2.83"/><rect x="68.03" y="39.69" width="2.83" height="2.83"/><rect x="70.87" y="39.69" width="2.83" height="2.83"/><rect x="82.2" y="39.69" width="2.83" height="2.83"/><rect x="96.38" y="39.69" width="2.83" height="2.83"/><rect x="99.21" y="39.69" width="2.83" height="2.83"/><rect x="104.88" y="39.69" width="2.83" height="2.83"/><rect x="110.55" y="39.69" width="2.83" height="2.83"/><rect x="119.06" y="39.69" width="2.83" height="2.83"/><rect x="127.56" y="39.69" width="2.83" height="2.83"/><rect x="133.23" y="39.69" width="2.83" height="2.83"/><rect x="138.9" y="39.69" width="2.83" height="2.83"/><rect x="141.73" y="39.69" width="2.83" height="2.83"/><rect x="147.4" y="39.69" width="2.83" height="2.83"/><rect x="25.51" y="42.52" width="2.83" height="2.83"/><rect x="34.02" y="42.52" width="2.83" height="2.83"/><rect x="39.69" y="42.52" width="2.83" height="2.83"/><rect x="42.52" y="42.52" width="2.83" height="2.83"/><rect x="45.35" y="42.52" width="2.83" height="2.83"/><rect x="53.86" y="42.52" width="2.83" height="2.83"/><rect x="56.69" y="42.52" width="2.83" height="2.83"/><rect x="65.2" y="42.52" width="2.83" height="2.83"/><rect x="68.03" y="42.52" width="2.83" height="2.83"/><rect x="73.7" y="42.52" width="2.83" height="2.83"/><rect x="79.37" y="42.52" width="2.83" height="2.83"/><rect x="82.2" y="42.52" width="2.83" height="2.83"/><rect x="85.04" y="42.52" width="2.83" height="2.83"/><rect x="87.87" y="42.52" width="2.83" height="2.83"/><rect x="93.54" y="42.52" width="2.83" height="2.83"/><rect x="102.05" y="42.52" width="2.83" height="2.83"/><rect x="110.55" y="42.52" width="2.83" height="2.83"/><rect x="116.22" y="42.52" width="2.83" height="2.83"/><rect x="127.56" y="42.52" width="2.83" height="2.83"/><rect x="130.39" y="42.52" width="2.83" height="2.83"/><rect x="138.9" y="42.52" width="2.83" height="2.83"/><rect x="14.17" y="45.35" width="2.83" height="2.83"/><rect x="17.01" y="45.35" width="2.83" height="2.83"/><rect x="25.51" y="45.35" width="2.83" height="2.83"/><rect x="28.35" y="45.35" width="2.83" height="2.83"/><rect x="39.69" y="45.35" width="2.83" height="2.83"/><rect x="42.52" y="45.35" width="2.83" height="2.83"/><rect x="48.19" y="45.35" width="2.83" height="2.83"/><rect x="56.69" y="45.35" width="2.83" height="2.83"/><rect x="59.53" y="45.35" width="2.83" height="2.83"/><rect x="70.87" y="45.35" width="2.83" height="2.83"/><rect x="87.87" y="45.35" width="2.83" height="2.83"/><rect x="90.71" y="45.35" width="2.83" height="2.83"/><rect x="96.38" y="45.35" width="2.83" height="2.83"/><rect x="119.06" y="45.35" width="2.83" height="2.83"/><rect x="121.89" y="45.35" width="2.83" height="2.83"/><rect x="124.72" y="45.35" width="2.83" height="2.83"/><rect x="130.39" y="45.35" width="2.83" height="2.83"/><rect x="133.23" y="45.35" width="2.83" height="2.83"/><rect x="136.06" y="45.35" width="2.83" height="2.83"/><rect x="147.4" y="45.35" width="2.83" height="2.83"/><rect y="48.19" width="2.83" height="2.83"/><rect x="11.34" y="48.19" width="2.83" height="2.83"/><rect x="28.35" y="48.19" width="2.83" height="2.83"/><rect x="31.18" y="48.19" width="2.83" height="2.83"/><rect x="34.02" y="48.19" width="2.83" height="2.83"/><rect x="36.85" y="48.19" width="2.83" height="2.83"/><rect x="51.02" y="48.19" width="2.83" height="2.83"/><rect x="53.86" y="48.19" width="2.83" height="2.83"/><rect x="56.69" y="48.19" width="2.83" height="2.83"/><rect x="68.03" y="48.19" width="2.83" height="2.83"/><rect x="70.87" y="48.19" width="2.83" height="2.83"/><rect x="73.7" y="48.19" width="2.83" height="2.83"/><rect x="85.04" y="48.19" width="2.83" height="2.83"/><rect x="87.87" y="48.19" width="2.83" height="2.83"/><rect x="96.38" y="48.19" width="2.83" height="2.83"/><rect x="99.21" y="48.19" width="2.83" height="2.83"/><rect x="104.88" y="48.19" width="2.83" height="2.83"/><rect x="107.72" y="48.19" width="2.83" height="2.83"/><rect x="113.39" y="48.19" width="2.83" height="2.83"/><rect x="116.22" y="48.19" width="2.83" height="2.83"/><rect x="119.06" y="48.19" width="2.83" height="2.83"/><rect x="124.72" y="48.19" width="2.83" height="2.83"/><rect x="136.06" y="48.19" width="2.83" height="2.83"/><rect x="138.9" y="48.19" width="2.83" height="2.83"/><rect x="144.57" y="48.19" width="2.83" height="2.83"/><rect x="14.17" y="51.02" width="2.83" height="2.83"/><rect x="17.01" y="51.02" width="2.83" height="2.83"/><rect x="28.35" y="51.02" width="2.83" height="2.83"/><rect x="31.18" y="51.02" width="2.83" height="2.83"/><rect x="34.02" y="51.02" width="2.83" height="2.83"/><rect x="36.85" y="51.02" width="2.83" height="2.83"/><rect x="45.35" y="51.02" width="2.83" height="2.83"/><rect x="51.02" y="51.02" width="2.83" height="2.83"/><rect x="53.86" y="51.02" width="2.83" height="2.83"/><rect x="59.53" y="51.02" width="2.83" height="2.83"/><rect x="62.36" y="51.02" width="2.83" height="2.83"/><rect x="65.2" y="51.02" width="2.83" height="2.83"/><rect x="68.03" y="51.02" width="2.83" height="2.83"/><rect x="73.7" y="51.02" width="2.83" height="2.83"/><rect x="79.37" y="51.02" width="2.83" height="2.83"/><rect x="82.2" y="51.02" width="2.83" height="2.83"/><rect x="93.54" y="51.02" width="2.83" height="2.83"/><rect x="96.38" y="51.02" width="2.83" height="2.83"/><rect x="99.21" y="51.02" width="2.83" height="2.83"/><rect x="102.05" y="51.02" width="2.83" height="2.83"/><rect x="110.55" y="51.02" width="2.83" height="2.83"/><rect x="121.89" y="51.02" width="2.83" height="2.83"/><rect x="124.72" y="51.02" width="2.83" height="2.83"/><rect x="130.39" y="51.02" width="2.83" height="2.83"/><rect x="133.23" y="51.02" width="2.83" height="2.83"/><rect x="138.9" y="51.02" width="2.83" height="2.83"/><rect x="141.73" y="51.02" width="2.83" height="2.83"/><rect x="144.57" y="51.02" width="2.83" height="2.83"/><rect y="53.86" width="2.83" height="2.83"/><rect x="5.67" y="53.86" width="2.83" height="2.83"/><rect x="11.34" y="53.86" width="2.83" height="2.83"/><rect x="14.17" y="53.86" width="2.83" height="2.83"/><rect x="22.68" y="53.86" width="2.83" height="2.83"/><rect x="28.35" y="53.86" width="2.83" height="2.83"/><rect x="31.18" y="53.86" width="2.83" height="2.83"/><rect x="34.02" y="53.86" width="2.83" height="2.83"/><rect x="42.52" y="53.86" width="2.83" height="2.83"/><rect x="45.35" y="53.86" width="2.83" height="2.83"/><rect x="48.19" y="53.86" width="2.83" height="2.83"/><rect x="53.86" y="53.86" width="2.83" height="2.83"/><rect x="56.69" y="53.86" width="2.83" height="2.83"/><rect x="62.36" y="53.86" width="2.83" height="2.83"/><rect x="65.2" y="53.86" width="2.83" height="2.83"/><rect x="68.03" y="53.86" width="2.83" height="2.83"/><rect x="70.87" y="53.86" width="2.83" height="2.83"/><rect x="76.54" y="53.86" width="2.83" height="2.83"/><rect x="79.37" y="53.86" width="2.83" height="2.83"/><rect x="82.2" y="53.86" width="2.83" height="2.83"/><rect x="85.04" y="53.86" width="2.83" height="2.83"/><rect x="87.87" y="53.86" width="2.83" height="2.83"/><rect x="93.54" y="53.86" width="2.83" height="2.83"/><rect x="96.38" y="53.86" width="2.83" height="2.83"/><rect x="113.39" y="53.86" width="2.83" height="2.83"/><rect x="116.22" y="53.86" width="2.83" height="2.83"/><rect x="127.56" y="53.86" width="2.83" height="2.83"/><rect x="130.39" y="53.86" width="2.83" height="2.83"/><rect x="141.73" y="53.86" width="2.83" height="2.83"/><rect x="2.83" y="56.69" width="2.83" height="2.83"/><rect x="14.17" y="56.69" width="2.83" height="2.83"/><rect x="17.01" y="56.69" width="2.83" height="2.83"/><rect x="22.68" y="56.69" width="2.83" height="2.83"/><rect x="28.35" y="56.69" width="2.83" height="2.83"/><rect x="34.02" y="56.69" width="2.83" height="2.83"/><rect x="36.85" y="56.69" width="2.83" height="2.83"/><rect x="39.69" y="56.69" width="2.83" height="2.83"/><rect x="42.52" y="56.69" width="2.83" height="2.83"/><rect x="45.35" y="56.69" width="2.83" height="2.83"/><rect x="48.19" y="56.69" width="2.83" height="2.83"/><rect x="53.86" y="56.69" width="2.83" height="2.83"/><rect x="56.69" y="56.69" width="2.83" height="2.83"/><rect x="70.87" y="56.69" width="2.83" height="2.83"/><rect x="73.7" y="56.69" width="2.83" height="2.83"/><rect x="76.54" y="56.69" width="2.83" height="2.83"/><rect x="82.2" y="56.69" width="2.83" height="2.83"/><rect x="85.04" y="56.69" width="2.83" height="2.83"/><rect x="90.71" y="56.69" width="2.83" height="2.83"/><rect x="102.05" y="56.69" width="2.83" height="2.83"/><rect x="107.72" y="56.69" width="2.83" height="2.83"/><rect x="113.39" y="56.69" width="2.83" height="2.83"/><rect x="116.22" y="56.69" width="2.83" height="2.83"/><rect x="121.89" y="56.69" width="2.83" height="2.83"/><rect x="124.72" y="56.69" width="2.83" height="2.83"/><rect x="130.39" y="56.69" width="2.83" height="2.83"/><rect x="133.23" y="56.69" width="2.83" height="2.83"/><rect x="136.06" y="56.69" width="2.83" height="2.83"/><rect x="138.9" y="56.69" width="2.83" height="2.83"/><rect x="147.4" y="56.69" width="2.83" height="2.83"/><rect y="59.53" width="2.83" height="2.83"/><rect x="2.83" y="59.53" width="2.83" height="2.83"/><rect x="8.5" y="59.53" width="2.83" height="2.83"/><rect x="11.34" y="59.53" width="2.83" height="2.83"/><rect x="14.17" y="59.53" width="2.83" height="2.83"/><rect x="25.51" y="59.53" width="2.83" height="2.83"/><rect x="34.02" y="59.53" width="2.83" height="2.83"/><rect x="39.69" y="59.53" width="2.83" height="2.83"/><rect x="45.35" y="59.53" width="2.83" height="2.83"/><rect x="53.86" y="59.53" width="2.83" height="2.83"/><rect x="56.69" y="59.53" width="2.83" height="2.83"/><rect x="59.53" y="59.53" width="2.83" height="2.83"/><rect x="68.03" y="59.53" width="2.83" height="2.83"/><rect x="70.87" y="59.53" width="2.83" height="2.83"/><rect x="76.54" y="59.53" width="2.83" height="2.83"/><rect x="87.87" y="59.53" width="2.83" height="2.83"/><rect x="90.71" y="59.53" width="2.83" height="2.83"/><rect x="99.21" y="59.53" width="2.83" height="2.83"/><rect x="102.05" y="59.53" width="2.83" height="2.83"/><rect x="104.88" y="59.53" width="2.83" height="2.83"/><rect x="110.55" y="59.53" width="2.83" height="2.83"/><rect x="113.39" y="59.53" width="2.83" height="2.83"/><rect x="119.06" y="59.53" width="2.83" height="2.83"/><rect x="121.89" y="59.53" width="2.83" height="2.83"/><rect x="124.72" y="59.53" width="2.83" height="2.83"/><rect x="130.39" y="59.53" width="2.83" height="2.83"/><rect x="136.06" y="59.53" width="2.83" height="2.83"/><rect x="138.9" y="59.53" width="2.83" height="2.83"/><rect x="141.73" y="59.53" width="2.83" height="2.83"/><rect x="147.4" y="59.53" width="2.83" height="2.83"/><rect x="2.83" y="62.36" width="2.83" height="2.83"/><rect x="5.67" y="62.36" width="2.83" height="2.83"/><rect x="14.17" y="62.36" width="2.83" height="2.83"/><rect x="17.01" y="62.36" width="2.83" height="2.83"/><rect x="22.68" y="62.36" width="2.83" height="2.83"/><rect x="25.51" y="62.36" width="2.83" height="2.83"/><rect x="28.35" y="62.36" width="2.83" height="2.83"/><rect x="34.02" y="62.36" width="2.83" height="2.83"/><rect x="36.85" y="62.36" width="2.83" height="2.83"/><rect x="42.52" y="62.36" width="2.83" height="2.83"/><rect x="45.35" y="62.36" width="2.83" height="2.83"/><rect x="51.02" y="62.36" width="2.83" height="2.83"/><rect x="56.69" y="62.36" width="2.83" height="2.83"/><rect x="59.53" y="62.36" width="2.83" height="2.83"/><rect x="70.87" y="62.36" width="2.83" height="2.83"/><rect x="73.7" y="62.36" width="2.83" height="2.83"/><rect x="76.54" y="62.36" width="2.83" height="2.83"/><rect x="79.37" y="62.36" width="2.83" height="2.83"/><rect x="90.71" y="62.36" width="2.83" height="2.83"/><rect x="93.54" y="62.36" width="2.83" height="2.83"/><rect x="96.38" y="62.36" width="2.83" height="2.83"/><rect x="99.21" y="62.36" width="2.83" height="2.83"/><rect x="110.55" y="62.36" width="2.83" height="2.83"/><rect x="116.22" y="62.36" width="2.83" height="2.83"/><rect x="119.06" y="62.36" width="2.83" height="2.83"/><rect x="130.39" y="62.36" width="2.83" height="2.83"/><rect x="133.23" y="62.36" width="2.83" height="2.83"/><rect x="144.57" y="62.36" width="2.83" height="2.83"/><rect x="147.4" y="62.36" width="2.83" height="2.83"/><rect x="2.83" y="65.2" width="2.83" height="2.83"/><rect x="5.67" y="65.2" width="2.83" height="2.83"/><rect x="8.5" y="65.2" width="2.83" height="2.83"/><rect x="11.34" y="65.2" width="2.83" height="2.83"/><rect x="22.68" y="65.2" width="2.83" height="2.83"/><rect x="31.18" y="65.2" width="2.83" height="2.83"/><rect x="36.85" y="65.2" width="2.83" height="2.83"/><rect x="39.69" y="65.2" width="2.83" height="2.83"/><rect x="45.35" y="65.2" width="2.83" height="2.83"/><rect x="53.86" y="65.2" width="2.83" height="2.83"/><rect x="56.69" y="65.2" width="2.83" height="2.83"/><rect x="65.2" y="65.2" width="2.83" height="2.83"/><rect x="70.87" y="65.2" width="2.83" height="2.83"/><rect x="79.37" y="65.2" width="2.83" height="2.83"/><rect x="82.2" y="65.2" width="2.83" height="2.83"/><rect x="87.87" y="65.2" width="2.83" height="2.83"/><rect x="90.71" y="65.2" width="2.83" height="2.83"/><rect x="93.54" y="65.2" width="2.83" height="2.83"/><rect x="104.88" y="65.2" width="2.83" height="2.83"/><rect x="110.55" y="65.2" width="2.83" height="2.83"/><rect x="116.22" y="65.2" width="2.83" height="2.83"/><rect x="127.56" y="65.2" width="2.83" height="2.83"/><rect x="130.39" y="65.2" width="2.83" height="2.83"/><rect x="136.06" y="65.2" width="2.83" height="2.83"/><rect x="138.9" y="65.2" width="2.83" height="2.83"/><rect y="68.03" width="2.83" height="2.83"/><rect x="2.83" y="68.03" width="2.83" height="2.83"/><rect x="5.67" y="68.03" width="2.83" height="2.83"/><rect x="11.34" y="68.03" width="2.83" height="2.83"/><rect x="14.17" y="68.03" width="2.83" height="2.83"/><rect x="17.01" y="68.03" width="2.83" height="2.83"/><rect x="19.84" y="68.03" width="2.83" height="2.83"/><rect x="22.68" y="68.03" width="2.83" height="2.83"/><rect x="36.85" y="68.03" width="2.83" height="2.83"/><rect x="39.69" y="68.03" width="2.83" height="2.83"/><rect x="45.35" y="68.03" width="2.83" height="2.83"/><rect x="48.19" y="68.03" width="2.83" height="2.83"/><rect x="56.69" y="68.03" width="2.83" height="2.83"/><rect x="65.2" y="68.03" width="2.83" height="2.83"/><rect x="68.03" y="68.03" width="2.83" height="2.83"/><rect x="70.87" y="68.03" width="2.83" height="2.83"/><rect x="73.7" y="68.03" width="2.83" height="2.83"/><rect x="76.54" y="68.03" width="2.83" height="2.83"/><rect x="79.37" y="68.03" width="2.83" height="2.83"/><rect x="90.71" y="68.03" width="2.83" height="2.83"/><rect x="93.54" y="68.03" width="2.83" height="2.83"/><rect x="96.38" y="68.03" width="2.83" height="2.83"/><rect x="99.21" y="68.03" width="2.83" height="2.83"/><rect x="102.05" y="68.03" width="2.83" height="2.83"/><rect x="104.88" y="68.03" width="2.83" height="2.83"/><rect x="113.39" y="68.03" width="2.83" height="2.83"/><rect x="119.06" y="68.03" width="2.83" height="2.83"/><rect x="124.72" y="68.03" width="2.83" height="2.83"/><rect x="127.56" y="68.03" width="2.83" height="2.83"/><rect x="130.39" y="68.03" width="2.83" height="2.83"/><rect x="133.23" y="68.03" width="2.83" height="2.83"/><rect x="136.06" y="68.03" width="2.83" height="2.83"/><rect x="141.73" y="68.03" width="2.83" height="2.83"/><rect x="147.4" y="68.03" width="2.83" height="2.83"/><rect x="5.67" y="70.87" width="2.83" height="2.83"/><rect x="8.5" y="70.87" width="2.83" height="2.83"/><rect x="11.34" y="70.87" width="2.83" height="2.83"/><rect x="22.68" y="70.87" width="2.83" height="2.83"/><rect x="25.51" y="70.87" width="2.83" height="2.83"/><rect x="31.18" y="70.87" width="2.83" height="2.83"/><rect x="39.69" y="70.87" width="2.83" height="2.83"/><rect x="42.52" y="70.87" width="2.83" height="2.83"/><rect x="45.35" y="70.87" width="2.83" height="2.83"/><rect x="48.19" y="70.87" width="2.83" height="2.83"/><rect x="53.86" y="70.87" width="2.83" height="2.83"/><rect x="56.69" y="70.87" width="2.83" height="2.83"/><rect x="59.53" y="70.87" width="2.83" height="2.83"/><rect x="68.03" y="70.87" width="2.83" height="2.83"/><rect x="79.37" y="70.87" width="2.83" height="2.83"/><rect x="85.04" y="70.87" width="2.83" height="2.83"/><rect x="87.87" y="70.87" width="2.83" height="2.83"/><rect x="90.71" y="70.87" width="2.83" height="2.83"/><rect x="102.05" y="70.87" width="2.83" height="2.83"/><rect x="104.88" y="70.87" width="2.83" height="2.83"/><rect x="110.55" y="70.87" width="2.83" height="2.83"/><rect x="113.39" y="70.87" width="2.83" height="2.83"/><rect x="116.22" y="70.87" width="2.83" height="2.83"/><rect x="119.06" y="70.87" width="2.83" height="2.83"/><rect x="124.72" y="70.87" width="2.83" height="2.83"/><rect x="136.06" y="70.87" width="2.83" height="2.83"/><rect x="138.9" y="70.87" width="2.83" height="2.83"/><rect x="141.73" y="70.87" width="2.83" height="2.83"/><rect x="2.83" y="73.7" width="2.83" height="2.83"/><rect x="5.67" y="73.7" width="2.83" height="2.83"/><rect x="11.34" y="73.7" width="2.83" height="2.83"/><rect x="17.01" y="73.7" width="2.83" height="2.83"/><rect x="22.68" y="73.7" width="2.83" height="2.83"/><rect x="39.69" y="73.7" width="2.83" height="2.83"/><rect x="48.19" y="73.7" width="2.83" height="2.83"/><rect x="59.53" y="73.7" width="2.83" height="2.83"/><rect x="65.2" y="73.7" width="2.83" height="2.83"/><rect x="68.03" y="73.7" width="2.83" height="2.83"/><rect x="73.7" y="73.7" width="2.83" height="2.83"/><rect x="79.37" y="73.7" width="2.83" height="2.83"/><rect x="85.04" y="73.7" width="2.83" height="2.83"/><rect x="90.71" y="73.7" width="2.83" height="2.83"/><rect x="93.54" y="73.7" width="2.83" height="2.83"/><rect x="99.21" y="73.7" width="2.83" height="2.83"/><rect x="102.05" y="73.7" width="2.83" height="2.83"/><rect x="110.55" y="73.7" width="2.83" height="2.83"/><rect x="121.89" y="73.7" width="2.83" height="2.83"/><rect x="124.72" y="73.7" width="2.83" height="2.83"/><rect x="130.39" y="73.7" width="2.83" height="2.83"/><rect x="136.06" y="73.7" width="2.83" height="2.83"/><rect x="144.57" y="73.7" width="2.83" height="2.83"/><rect x="147.4" y="73.7" width="2.83" height="2.83"/><rect x="2.83" y="76.54" width="2.83" height="2.83"/><rect x="5.67" y="76.54" width="2.83" height="2.83"/><rect x="11.34" y="76.54" width="2.83" height="2.83"/><rect x="22.68" y="76.54" width="2.83" height="2.83"/><rect x="28.35" y="76.54" width="2.83" height="2.83"/><rect x="36.85" y="76.54" width="2.83" height="2.83"/><rect x="39.69" y="76.54" width="2.83" height="2.83"/><rect x="45.35" y="76.54" width="2.83" height="2.83"/><rect x="48.19" y="76.54" width="2.83" height="2.83"/><rect x="53.86" y="76.54" width="2.83" height="2.83"/><rect x="65.2" y="76.54" width="2.83" height="2.83"/><rect x="68.03" y="76.54" width="2.83" height="2.83"/><rect x="79.37" y="76.54" width="2.83" height="2.83"/><rect x="82.2" y="76.54" width="2.83" height="2.83"/><rect x="93.54" y="76.54" width="2.83" height="2.83"/><rect x="96.38" y="76.54" width="2.83" height="2.83"/><rect x="99.21" y="76.54" width="2.83" height="2.83"/><rect x="102.05" y="76.54" width="2.83" height="2.83"/><rect x="107.72" y="76.54" width="2.83" height="2.83"/><rect x="113.39" y="76.54" width="2.83" height="2.83"/><rect x="116.22" y="76.54" width="2.83" height="2.83"/><rect x="124.72" y="76.54" width="2.83" height="2.83"/><rect x="136.06" y="76.54" width="2.83" height="2.83"/><rect x="138.9" y="76.54" width="2.83" height="2.83"/><rect x="5.67" y="79.37" width="2.83" height="2.83"/><rect x="8.5" y="79.37" width="2.83" height="2.83"/><rect x="11.34" y="79.37" width="2.83" height="2.83"/><rect x="14.17" y="79.37" width="2.83" height="2.83"/><rect x="17.01" y="79.37" width="2.83" height="2.83"/><rect x="19.84" y="79.37" width="2.83" height="2.83"/><rect x="22.68" y="79.37" width="2.83" height="2.83"/><rect x="25.51" y="79.37" width="2.83" height="2.83"/><rect x="28.35" y="79.37" width="2.83" height="2.83"/><rect x="34.02" y="79.37" width="2.83" height="2.83"/><rect x="36.85" y="79.37" width="2.83" height="2.83"/><rect x="39.69" y="79.37" width="2.83" height="2.83"/><rect x="45.35" y="79.37" width="2.83" height="2.83"/><rect x="48.19" y="79.37" width="2.83" height="2.83"/><rect x="53.86" y="79.37" width="2.83" height="2.83"/><rect x="56.69" y="79.37" width="2.83" height="2.83"/><rect x="59.53" y="79.37" width="2.83" height="2.83"/><rect x="65.2" y="79.37" width="2.83" height="2.83"/><rect x="68.03" y="79.37" width="2.83" height="2.83"/><rect x="70.87" y="79.37" width="2.83" height="2.83"/><rect x="73.7" y="79.37" width="2.83" height="2.83"/><rect x="76.54" y="79.37" width="2.83" height="2.83"/><rect x="79.37" y="79.37" width="2.83" height="2.83"/><rect x="82.2" y="79.37" width="2.83" height="2.83"/><rect x="85.04" y="79.37" width="2.83" height="2.83"/><rect x="93.54" y="79.37" width="2.83" height="2.83"/><rect x="102.05" y="79.37" width="2.83" height="2.83"/><rect x="110.55" y="79.37" width="2.83" height="2.83"/><rect x="116.22" y="79.37" width="2.83" height="2.83"/><rect x="119.06" y="79.37" width="2.83" height="2.83"/><rect x="121.89" y="79.37" width="2.83" height="2.83"/><rect x="124.72" y="79.37" width="2.83" height="2.83"/><rect x="127.56" y="79.37" width="2.83" height="2.83"/><rect x="130.39" y="79.37" width="2.83" height="2.83"/><rect x="133.23" y="79.37" width="2.83" height="2.83"/><rect x="136.06" y="79.37" width="2.83" height="2.83"/><rect x="138.9" y="79.37" width="2.83" height="2.83"/><rect x="141.73" y="79.37" width="2.83" height="2.83"/><rect x="147.4" y="79.37" width="2.83" height="2.83"/><rect x="2.83" y="82.2" width="2.83" height="2.83"/><rect x="5.67" y="82.2" width="2.83" height="2.83"/><rect x="14.17" y="82.2" width="2.83" height="2.83"/><rect x="19.84" y="82.2" width="2.83" height="2.83"/><rect x="25.51" y="82.2" width="2.83" height="2.83"/><rect x="28.35" y="82.2" width="2.83" height="2.83"/><rect x="34.02" y="82.2" width="2.83" height="2.83"/><rect x="36.85" y="82.2" width="2.83" height="2.83"/><rect x="51.02" y="82.2" width="2.83" height="2.83"/><rect x="53.86" y="82.2" width="2.83" height="2.83"/><rect x="59.53" y="82.2" width="2.83" height="2.83"/><rect x="62.36" y="82.2" width="2.83" height="2.83"/><rect x="65.2" y="82.2" width="2.83" height="2.83"/><rect x="68.03" y="82.2" width="2.83" height="2.83"/><rect x="70.87" y="82.2" width="2.83" height="2.83"/><rect x="73.7" y="82.2" width="2.83" height="2.83"/><rect x="87.87" y="82.2" width="2.83" height="2.83"/><rect x="96.38" y="82.2" width="2.83" height="2.83"/><rect x="99.21" y="82.2" width="2.83" height="2.83"/><rect x="104.88" y="82.2" width="2.83" height="2.83"/><rect x="119.06" y="82.2" width="2.83" height="2.83"/><rect x="124.72" y="82.2" width="2.83" height="2.83"/><rect x="130.39" y="82.2" width="2.83" height="2.83"/><rect x="133.23" y="82.2" width="2.83" height="2.83"/><rect x="136.06" y="82.2" width="2.83" height="2.83"/><rect x="138.9" y="82.2" width="2.83" height="2.83"/><rect x="144.57" y="82.2" width="2.83" height="2.83"/><rect x="11.34" y="85.04" width="2.83" height="2.83"/><rect x="17.01" y="85.04" width="2.83" height="2.83"/><rect x="22.68" y="85.04" width="2.83" height="2.83"/><rect x="25.51" y="85.04" width="2.83" height="2.83"/><rect x="28.35" y="85.04" width="2.83" height="2.83"/><rect x="39.69" y="85.04" width="2.83" height="2.83"/><rect x="42.52" y="85.04" width="2.83" height="2.83"/><rect x="56.69" y="85.04" width="2.83" height="2.83"/><rect x="59.53" y="85.04" width="2.83" height="2.83"/><rect x="62.36" y="85.04" width="2.83" height="2.83"/><rect x="68.03" y="85.04" width="2.83" height="2.83"/><rect x="79.37" y="85.04" width="2.83" height="2.83"/><rect x="82.2" y="85.04" width="2.83" height="2.83"/><rect x="87.87" y="85.04" width="2.83" height="2.83"/><rect x="90.71" y="85.04" width="2.83" height="2.83"/><rect x="93.54" y="85.04" width="2.83" height="2.83"/><rect x="96.38" y="85.04" width="2.83" height="2.83"/><rect x="99.21" y="85.04" width="2.83" height="2.83"/><rect x="102.05" y="85.04" width="2.83" height="2.83"/><rect x="104.88" y="85.04" width="2.83" height="2.83"/><rect x="110.55" y="85.04" width="2.83" height="2.83"/><rect x="113.39" y="85.04" width="2.83" height="2.83"/><rect x="116.22" y="85.04" width="2.83" height="2.83"/><rect x="121.89" y="85.04" width="2.83" height="2.83"/><rect x="124.72" y="85.04" width="2.83" height="2.83"/><rect x="130.39" y="85.04" width="2.83" height="2.83"/><rect x="136.06" y="85.04" width="2.83" height="2.83"/><rect x="138.9" y="85.04" width="2.83" height="2.83"/><rect x="147.4" y="85.04" width="2.83" height="2.83"/><rect x="11.34" y="87.87" width="2.83" height="2.83"/><rect x="19.84" y="87.87" width="2.83" height="2.83"/><rect x="25.51" y="87.87" width="2.83" height="2.83"/><rect x="34.02" y="87.87" width="2.83" height="2.83"/><rect x="39.69" y="87.87" width="2.83" height="2.83"/><rect x="42.52" y="87.87" width="2.83" height="2.83"/><rect x="45.35" y="87.87" width="2.83" height="2.83"/><rect x="53.86" y="87.87" width="2.83" height="2.83"/><rect x="56.69" y="87.87" width="2.83" height="2.83"/><rect x="59.53" y="87.87" width="2.83" height="2.83"/><rect x="65.2" y="87.87" width="2.83" height="2.83"/><rect x="68.03" y="87.87" width="2.83" height="2.83"/><rect x="70.87" y="87.87" width="2.83" height="2.83"/><rect x="76.54" y="87.87" width="2.83" height="2.83"/><rect x="82.2" y="87.87" width="2.83" height="2.83"/><rect x="87.87" y="87.87" width="2.83" height="2.83"/><rect x="93.54" y="87.87" width="2.83" height="2.83"/><rect x="99.21" y="87.87" width="2.83" height="2.83"/><rect x="110.55" y="87.87" width="2.83" height="2.83"/><rect x="116.22" y="87.87" width="2.83" height="2.83"/><rect x="121.89" y="87.87" width="2.83" height="2.83"/><rect x="124.72" y="87.87" width="2.83" height="2.83"/><rect x="133.23" y="87.87" width="2.83" height="2.83"/><rect x="5.67" y="90.71" width="2.83" height="2.83"/><rect x="8.5" y="90.71" width="2.83" height="2.83"/><rect x="11.34" y="90.71" width="2.83" height="2.83"/><rect x="17.01" y="90.71" width="2.83" height="2.83"/><rect x="19.84" y="90.71" width="2.83" height="2.83"/><rect x="22.68" y="90.71" width="2.83" height="2.83"/><rect x="28.35" y="90.71" width="2.83" height="2.83"/><rect x="31.18" y="90.71" width="2.83" height="2.83"/><rect x="36.85" y="90.71" width="2.83" height="2.83"/><rect x="39.69" y="90.71" width="2.83" height="2.83"/><rect x="42.52" y="90.71" width="2.83" height="2.83"/><rect x="48.19" y="90.71" width="2.83" height="2.83"/><rect x="51.02" y="90.71" width="2.83" height="2.83"/><rect x="53.86" y="90.71" width="2.83" height="2.83"/><rect x="56.69" y="90.71" width="2.83" height="2.83"/><rect x="59.53" y="90.71" width="2.83" height="2.83"/><rect x="65.2" y="90.71" width="2.83" height="2.83"/><rect x="70.87" y="90.71" width="2.83" height="2.83"/><rect x="73.7" y="90.71" width="2.83" height="2.83"/><rect x="79.37" y="90.71" width="2.83" height="2.83"/><rect x="82.2" y="90.71" width="2.83" height="2.83"/><rect x="85.04" y="90.71" width="2.83" height="2.83"/><rect x="87.87" y="90.71" width="2.83" height="2.83"/><rect x="93.54" y="90.71" width="2.83" height="2.83"/><rect x="107.72" y="90.71" width="2.83" height="2.83"/><rect x="119.06" y="90.71" width="2.83" height="2.83"/><rect x="121.89" y="90.71" width="2.83" height="2.83"/><rect x="133.23" y="90.71" width="2.83" height="2.83"/><rect x="138.9" y="90.71" width="2.83" height="2.83"/><rect x="141.73" y="90.71" width="2.83" height="2.83"/><rect x="147.4" y="90.71" width="2.83" height="2.83"/><rect x="2.83" y="93.54" width="2.83" height="2.83"/><rect x="11.34" y="93.54" width="2.83" height="2.83"/><rect x="14.17" y="93.54" width="2.83" height="2.83"/><rect x="19.84" y="93.54" width="2.83" height="2.83"/><rect x="22.68" y="93.54" width="2.83" height="2.83"/><rect x="25.51" y="93.54" width="2.83" height="2.83"/><rect x="28.35" y="93.54" width="2.83" height="2.83"/><rect x="31.18" y="93.54" width="2.83" height="2.83"/><rect x="34.02" y="93.54" width="2.83" height="2.83"/><rect x="39.69" y="93.54" width="2.83" height="2.83"/><rect x="45.35" y="93.54" width="2.83" height="2.83"/><rect x="56.69" y="93.54" width="2.83" height="2.83"/><rect x="62.36" y="93.54" width="2.83" height="2.83"/><rect x="65.2" y="93.54" width="2.83" height="2.83"/><rect x="73.7" y="93.54" width="2.83" height="2.83"/><rect x="85.04" y="93.54" width="2.83" height="2.83"/><rect x="90.71" y="93.54" width="2.83" height="2.83"/><rect x="96.38" y="93.54" width="2.83" height="2.83"/><rect x="99.21" y="93.54" width="2.83" height="2.83"/><rect x="102.05" y="93.54" width="2.83" height="2.83"/><rect x="104.88" y="93.54" width="2.83" height="2.83"/><rect x="110.55" y="93.54" width="2.83" height="2.83"/><rect x="113.39" y="93.54" width="2.83" height="2.83"/><rect x="116.22" y="93.54" width="2.83" height="2.83"/><rect x="119.06" y="93.54" width="2.83" height="2.83"/><rect x="124.72" y="93.54" width="2.83" height="2.83"/><rect x="130.39" y="93.54" width="2.83" height="2.83"/><rect x="136.06" y="93.54" width="2.83" height="2.83"/><rect x="138.9" y="93.54" width="2.83" height="2.83"/><rect x="141.73" y="93.54" width="2.83" height="2.83"/><rect x="147.4" y="93.54" width="2.83" height="2.83"/><rect x="2.83" y="96.38" width="2.83" height="2.83"/><rect x="14.17" y="96.38" width="2.83" height="2.83"/><rect x="17.01" y="96.38" width="2.83" height="2.83"/><rect x="25.51" y="96.38" width="2.83" height="2.83"/><rect x="31.18" y="96.38" width="2.83" height="2.83"/><rect x="42.52" y="96.38" width="2.83" height="2.83"/><rect x="45.35" y="96.38" width="2.83" height="2.83"/><rect x="51.02" y="96.38" width="2.83" height="2.83"/><rect x="56.69" y="96.38" width="2.83" height="2.83"/><rect x="59.53" y="96.38" width="2.83" height="2.83"/><rect x="65.2" y="96.38" width="2.83" height="2.83"/><rect x="68.03" y="96.38" width="2.83" height="2.83"/><rect x="79.37" y="96.38" width="2.83" height="2.83"/><rect x="93.54" y="96.38" width="2.83" height="2.83"/><rect x="96.38" y="96.38" width="2.83" height="2.83"/><rect x="99.21" y="96.38" width="2.83" height="2.83"/><rect x="107.72" y="96.38" width="2.83" height="2.83"/><rect x="110.55" y="96.38" width="2.83" height="2.83"/><rect x="113.39" y="96.38" width="2.83" height="2.83"/><rect x="121.89" y="96.38" width="2.83" height="2.83"/><rect x="124.72" y="96.38" width="2.83" height="2.83"/><rect x="127.56" y="96.38" width="2.83" height="2.83"/><rect x="130.39" y="96.38" width="2.83" height="2.83"/><rect x="133.23" y="96.38" width="2.83" height="2.83"/><rect x="136.06" y="96.38" width="2.83" height="2.83"/><rect x="141.73" y="96.38" width="2.83" height="2.83"/><rect x="144.57" y="96.38" width="2.83" height="2.83"/><rect x="147.4" y="96.38" width="2.83" height="2.83"/><rect x="2.83" y="99.21" width="2.83" height="2.83"/><rect x="11.34" y="99.21" width="2.83" height="2.83"/><rect x="19.84" y="99.21" width="2.83" height="2.83"/><rect x="25.51" y="99.21" width="2.83" height="2.83"/><rect x="28.35" y="99.21" width="2.83" height="2.83"/><rect x="36.85" y="99.21" width="2.83" height="2.83"/><rect x="39.69" y="99.21" width="2.83" height="2.83"/><rect x="42.52" y="99.21" width="2.83" height="2.83"/><rect x="45.35" y="99.21" width="2.83" height="2.83"/><rect x="48.19" y="99.21" width="2.83" height="2.83"/><rect x="51.02" y="99.21" width="2.83" height="2.83"/><rect x="53.86" y="99.21" width="2.83" height="2.83"/><rect x="56.69" y="99.21" width="2.83" height="2.83"/><rect x="73.7" y="99.21" width="2.83" height="2.83"/><rect x="76.54" y="99.21" width="2.83" height="2.83"/><rect x="82.2" y="99.21" width="2.83" height="2.83"/><rect x="87.87" y="99.21" width="2.83" height="2.83"/><rect x="93.54" y="99.21" width="2.83" height="2.83"/><rect x="96.38" y="99.21" width="2.83" height="2.83"/><rect x="99.21" y="99.21" width="2.83" height="2.83"/><rect x="107.72" y="99.21" width="2.83" height="2.83"/><rect x="110.55" y="99.21" width="2.83" height="2.83"/><rect x="116.22" y="99.21" width="2.83" height="2.83"/><rect x="124.72" y="99.21" width="2.83" height="2.83"/><rect x="133.23" y="99.21" width="2.83" height="2.83"/><rect x="136.06" y="99.21" width="2.83" height="2.83"/><rect x="141.73" y="99.21" width="2.83" height="2.83"/><rect y="102.05" width="2.83" height="2.83"/><rect x="2.83" y="102.05" width="2.83" height="2.83"/><rect x="14.17" y="102.05" width="2.83" height="2.83"/><rect x="17.01" y="102.05" width="2.83" height="2.83"/><rect x="19.84" y="102.05" width="2.83" height="2.83"/><rect x="25.51" y="102.05" width="2.83" height="2.83"/><rect x="31.18" y="102.05" width="2.83" height="2.83"/><rect x="34.02" y="102.05" width="2.83" height="2.83"/><rect x="45.35" y="102.05" width="2.83" height="2.83"/><rect x="48.19" y="102.05" width="2.83" height="2.83"/><rect x="51.02" y="102.05" width="2.83" height="2.83"/><rect x="59.53" y="102.05" width="2.83" height="2.83"/><rect x="65.2" y="102.05" width="2.83" height="2.83"/><rect x="70.87" y="102.05" width="2.83" height="2.83"/><rect x="79.37" y="102.05" width="2.83" height="2.83"/><rect x="82.2" y="102.05" width="2.83" height="2.83"/><rect x="85.04" y="102.05" width="2.83" height="2.83"/><rect x="90.71" y="102.05" width="2.83" height="2.83"/><rect x="96.38" y="102.05" width="2.83" height="2.83"/><rect x="99.21" y="102.05" width="2.83" height="2.83"/><rect x="102.05" y="102.05" width="2.83" height="2.83"/><rect x="113.39" y="102.05" width="2.83" height="2.83"/><rect x="119.06" y="102.05" width="2.83" height="2.83"/><rect x="121.89" y="102.05" width="2.83" height="2.83"/><rect x="124.72" y="102.05" width="2.83" height="2.83"/><rect x="136.06" y="102.05" width="2.83" height="2.83"/><rect x="141.73" y="102.05" width="2.83" height="2.83"/><rect x="147.4" y="102.05" width="2.83" height="2.83"/><rect y="104.88" width="2.83" height="2.83"/><rect x="5.67" y="104.88" width="2.83" height="2.83"/><rect x="8.5" y="104.88" width="2.83" height="2.83"/><rect x="14.17" y="104.88" width="2.83" height="2.83"/><rect x="19.84" y="104.88" width="2.83" height="2.83"/><rect x="22.68" y="104.88" width="2.83" height="2.83"/><rect x="25.51" y="104.88" width="2.83" height="2.83"/><rect x="36.85" y="104.88" width="2.83" height="2.83"/><rect x="39.69" y="104.88" width="2.83" height="2.83"/><rect x="45.35" y="104.88" width="2.83" height="2.83"/><rect x="53.86" y="104.88" width="2.83" height="2.83"/><rect x="59.53" y="104.88" width="2.83" height="2.83"/><rect x="62.36" y="104.88" width="2.83" height="2.83"/><rect x="73.7" y="104.88" width="2.83" height="2.83"/><rect x="85.04" y="104.88" width="2.83" height="2.83"/><rect x="87.87" y="104.88" width="2.83" height="2.83"/><rect x="90.71" y="104.88" width="2.83" height="2.83"/><rect x="99.21" y="104.88" width="2.83" height="2.83"/><rect x="104.88" y="104.88" width="2.83" height="2.83"/><rect x="116.22" y="104.88" width="2.83" height="2.83"/><rect x="119.06" y="104.88" width="2.83" height="2.83"/><rect x="121.89" y="104.88" width="2.83" height="2.83"/><rect x="124.72" y="104.88" width="2.83" height="2.83"/><rect x="127.56" y="104.88" width="2.83" height="2.83"/><rect x="130.39" y="104.88" width="2.83" height="2.83"/><rect x="133.23" y="104.88" width="2.83" height="2.83"/><rect x="136.06" y="104.88" width="2.83" height="2.83"/><rect x="138.9" y="104.88" width="2.83" height="2.83"/><rect x="141.73" y="104.88" width="2.83" height="2.83"/><rect x="147.4" y="104.88" width="2.83" height="2.83"/><rect x="5.67" y="107.72" width="2.83" height="2.83"/><rect x="8.5" y="107.72" width="2.83" height="2.83"/><rect x="14.17" y="107.72" width="2.83" height="2.83"/><rect x="17.01" y="107.72" width="2.83" height="2.83"/><rect x="22.68" y="107.72" width="2.83" height="2.83"/><rect x="31.18" y="107.72" width="2.83" height="2.83"/><rect x="34.02" y="107.72" width="2.83" height="2.83"/><rect x="36.85" y="107.72" width="2.83" height="2.83"/><rect x="53.86" y="107.72" width="2.83" height="2.83"/><rect x="65.2" y="107.72" width="2.83" height="2.83"/><rect x="73.7" y="107.72" width="2.83" height="2.83"/><rect x="76.54" y="107.72" width="2.83" height="2.83"/><rect x="79.37" y="107.72" width="2.83" height="2.83"/><rect x="82.2" y="107.72" width="2.83" height="2.83"/><rect x="85.04" y="107.72" width="2.83" height="2.83"/><rect x="93.54" y="107.72" width="2.83" height="2.83"/><rect x="99.21" y="107.72" width="2.83" height="2.83"/><rect x="104.88" y="107.72" width="2.83" height="2.83"/><rect x="110.55" y="107.72" width="2.83" height="2.83"/><rect x="113.39" y="107.72" width="2.83" height="2.83"/><rect x="130.39" y="107.72" width="2.83" height="2.83"/><rect x="133.23" y="107.72" width="2.83" height="2.83"/><rect x="136.06" y="107.72" width="2.83" height="2.83"/><rect x="138.9" y="107.72" width="2.83" height="2.83"/><rect x="141.73" y="107.72" width="2.83" height="2.83"/><rect x="144.57" y="107.72" width="2.83" height="2.83"/><rect x="2.83" y="110.55" width="2.83" height="2.83"/><rect x="8.5" y="110.55" width="2.83" height="2.83"/><rect x="14.17" y="110.55" width="2.83" height="2.83"/><rect x="19.84" y="110.55" width="2.83" height="2.83"/><rect x="22.68" y="110.55" width="2.83" height="2.83"/><rect x="31.18" y="110.55" width="2.83" height="2.83"/><rect x="34.02" y="110.55" width="2.83" height="2.83"/><rect x="51.02" y="110.55" width="2.83" height="2.83"/><rect x="59.53" y="110.55" width="2.83" height="2.83"/><rect x="65.2" y="110.55" width="2.83" height="2.83"/><rect x="70.87" y="110.55" width="2.83" height="2.83"/><rect x="82.2" y="110.55" width="2.83" height="2.83"/><rect x="85.04" y="110.55" width="2.83" height="2.83"/><rect x="90.71" y="110.55" width="2.83" height="2.83"/><rect x="96.38" y="110.55" width="2.83" height="2.83"/><rect x="99.21" y="110.55" width="2.83" height="2.83"/><rect x="102.05" y="110.55" width="2.83" height="2.83"/><rect x="107.72" y="110.55" width="2.83" height="2.83"/><rect x="110.55" y="110.55" width="2.83" height="2.83"/><rect x="116.22" y="110.55" width="2.83" height="2.83"/><rect x="119.06" y="110.55" width="2.83" height="2.83"/><rect x="121.89" y="110.55" width="2.83" height="2.83"/><rect x="124.72" y="110.55" width="2.83" height="2.83"/><rect x="127.56" y="110.55" width="2.83" height="2.83"/><rect x="130.39" y="110.55" width="2.83" height="2.83"/><rect x="133.23" y="110.55" width="2.83" height="2.83"/><rect x="136.06" y="110.55" width="2.83" height="2.83"/><rect x="2.83" y="113.39" width="2.83" height="2.83"/><rect x="11.34" y="113.39" width="2.83" height="2.83"/><rect x="14.17" y="113.39" width="2.83" height="2.83"/><rect x="17.01" y="113.39" width="2.83" height="2.83"/><rect x="22.68" y="113.39" width="2.83" height="2.83"/><rect x="25.51" y="113.39" width="2.83" height="2.83"/><rect x="28.35" y="113.39" width="2.83" height="2.83"/><rect x="36.85" y="113.39" width="2.83" height="2.83"/><rect x="48.19" y="113.39" width="2.83" height="2.83"/><rect x="53.86" y="113.39" width="2.83" height="2.83"/><rect x="59.53" y="113.39" width="2.83" height="2.83"/><rect x="62.36" y="113.39" width="2.83" height="2.83"/><rect x="65.2" y="113.39" width="2.83" height="2.83"/><rect x="70.87" y="113.39" width="2.83" height="2.83"/><rect x="76.54" y="113.39" width="2.83" height="2.83"/><rect x="85.04" y="113.39" width="2.83" height="2.83"/><rect x="87.87" y="113.39" width="2.83" height="2.83"/><rect x="90.71" y="113.39" width="2.83" height="2.83"/><rect x="96.38" y="113.39" width="2.83" height="2.83"/><rect x="107.72" y="113.39" width="2.83" height="2.83"/><rect x="116.22" y="113.39" width="2.83" height="2.83"/><rect x="121.89" y="113.39" width="2.83" height="2.83"/><rect x="130.39" y="113.39" width="2.83" height="2.83"/><rect x="133.23" y="113.39" width="2.83" height="2.83"/><rect x="136.06" y="113.39" width="2.83" height="2.83"/><rect x="138.9" y="113.39" width="2.83" height="2.83"/><rect x="147.4" y="113.39" width="2.83" height="2.83"/><rect y="116.22" width="2.83" height="2.83"/><rect x="5.67" y="116.22" width="2.83" height="2.83"/><rect x="8.5" y="116.22" width="2.83" height="2.83"/><rect x="19.84" y="116.22" width="2.83" height="2.83"/><rect x="22.68" y="116.22" width="2.83" height="2.83"/><rect x="25.51" y="116.22" width="2.83" height="2.83"/><rect x="31.18" y="116.22" width="2.83" height="2.83"/><rect x="34.02" y="116.22" width="2.83" height="2.83"/><rect x="36.85" y="116.22" width="2.83" height="2.83"/><rect x="39.69" y="116.22" width="2.83" height="2.83"/><rect x="45.35" y="116.22" width="2.83" height="2.83"/><rect x="56.69" y="116.22" width="2.83" height="2.83"/><rect x="70.87" y="116.22" width="2.83" height="2.83"/><rect x="82.2" y="116.22" width="2.83" height="2.83"/><rect x="85.04" y="116.22" width="2.83" height="2.83"/><rect x="93.54" y="116.22" width="2.83" height="2.83"/><rect x="102.05" y="116.22" width="2.83" height="2.83"/><rect x="104.88" y="116.22" width="2.83" height="2.83"/><rect x="110.55" y="116.22" width="2.83" height="2.83"/><rect x="113.39" y="116.22" width="2.83" height="2.83"/><rect x="116.22" y="116.22" width="2.83" height="2.83"/><rect x="119.06" y="116.22" width="2.83" height="2.83"/><rect x="124.72" y="116.22" width="2.83" height="2.83"/><rect x="130.39" y="116.22" width="2.83" height="2.83"/><rect x="138.9" y="116.22" width="2.83" height="2.83"/><rect x="141.73" y="116.22" width="2.83" height="2.83"/><rect x="144.57" y="116.22" width="2.83" height="2.83"/><rect x="147.4" y="116.22" width="2.83" height="2.83"/><rect y="119.06" width="2.83" height="2.83"/><rect x="2.83" y="119.06" width="2.83" height="2.83"/><rect x="8.5" y="119.06" width="2.83" height="2.83"/><rect x="11.34" y="119.06" width="2.83" height="2.83"/><rect x="14.17" y="119.06" width="2.83" height="2.83"/><rect x="17.01" y="119.06" width="2.83" height="2.83"/><rect x="19.84" y="119.06" width="2.83" height="2.83"/><rect x="22.68" y="119.06" width="2.83" height="2.83"/><rect x="31.18" y="119.06" width="2.83" height="2.83"/><rect x="48.19" y="119.06" width="2.83" height="2.83"/><rect x="59.53" y="119.06" width="2.83" height="2.83"/><rect x="62.36" y="119.06" width="2.83" height="2.83"/><rect x="65.2" y="119.06" width="2.83" height="2.83"/><rect x="76.54" y="119.06" width="2.83" height="2.83"/><rect x="90.71" y="119.06" width="2.83" height="2.83"/><rect x="93.54" y="119.06" width="2.83" height="2.83"/><rect x="96.38" y="119.06" width="2.83" height="2.83"/><rect x="99.21" y="119.06" width="2.83" height="2.83"/><rect x="104.88" y="119.06" width="2.83" height="2.83"/><rect x="110.55" y="119.06" width="2.83" height="2.83"/><rect x="113.39" y="119.06" width="2.83" height="2.83"/><rect x="119.06" y="119.06" width="2.83" height="2.83"/><rect x="124.72" y="119.06" width="2.83" height="2.83"/><rect x="130.39" y="119.06" width="2.83" height="2.83"/><rect x="136.06" y="119.06" width="2.83" height="2.83"/><rect x="141.73" y="119.06" width="2.83" height="2.83"/><rect x="144.57" y="119.06" width="2.83" height="2.83"/><rect x="147.4" y="119.06" width="2.83" height="2.83"/><rect x="2.83" y="121.89" width="2.83" height="2.83"/><rect x="5.67" y="121.89" width="2.83" height="2.83"/><rect x="19.84" y="121.89" width="2.83" height="2.83"/><rect x="22.68" y="121.89" width="2.83" height="2.83"/><rect x="28.35" y="121.89" width="2.83" height="2.83"/><rect x="31.18" y="121.89" width="2.83" height="2.83"/><rect x="34.02" y="121.89" width="2.83" height="2.83"/><rect x="42.52" y="121.89" width="2.83" height="2.83"/><rect x="53.86" y="121.89" width="2.83" height="2.83"/><rect x="56.69" y="121.89" width="2.83" height="2.83"/><rect x="65.2" y="121.89" width="2.83" height="2.83"/><rect x="70.87" y="121.89" width="2.83" height="2.83"/><rect x="73.7" y="121.89" width="2.83" height="2.83"/><rect x="76.54" y="121.89" width="2.83" height="2.83"/><rect x="82.2" y="121.89" width="2.83" height="2.83"/><rect x="93.54" y="121.89" width="2.83" height="2.83"/><rect x="113.39" y="121.89" width="2.83" height="2.83"/><rect x="116.22" y="121.89" width="2.83" height="2.83"/><rect x="121.89" y="121.89" width="2.83" height="2.83"/><rect x="127.56" y="121.89" width="2.83" height="2.83"/><rect x="130.39" y="121.89" width="2.83" height="2.83"/><rect x="133.23" y="121.89" width="2.83" height="2.83"/><rect x="136.06" y="121.89" width="2.83" height="2.83"/><rect x="8.5" y="124.72" width="2.83" height="2.83"/><rect x="17.01" y="124.72" width="2.83" height="2.83"/><rect x="19.84" y="124.72" width="2.83" height="2.83"/><rect x="28.35" y="124.72" width="2.83" height="2.83"/><rect x="31.18" y="124.72" width="2.83" height="2.83"/><rect x="45.35" y="124.72" width="2.83" height="2.83"/><rect x="48.19" y="124.72" width="2.83" height="2.83"/><rect x="51.02" y="124.72" width="2.83" height="2.83"/><rect x="53.86" y="124.72" width="2.83" height="2.83"/><rect x="65.2" y="124.72" width="2.83" height="2.83"/><rect x="68.03" y="124.72" width="2.83" height="2.83"/><rect x="70.87" y="124.72" width="2.83" height="2.83"/><rect x="73.7" y="124.72" width="2.83" height="2.83"/><rect x="76.54" y="124.72" width="2.83" height="2.83"/><rect x="79.37" y="124.72" width="2.83" height="2.83"/><rect x="85.04" y="124.72" width="2.83" height="2.83"/><rect x="93.54" y="124.72" width="2.83" height="2.83"/><rect x="96.38" y="124.72" width="2.83" height="2.83"/><rect x="104.88" y="124.72" width="2.83" height="2.83"/><rect x="107.72" y="124.72" width="2.83" height="2.83"/><rect x="113.39" y="124.72" width="2.83" height="2.83"/><rect x="121.89" y="124.72" width="2.83" height="2.83"/><rect x="124.72" y="124.72" width="2.83" height="2.83"/><rect x="127.56" y="124.72" width="2.83" height="2.83"/><rect x="130.39" y="124.72" width="2.83" height="2.83"/><rect x="133.23" y="124.72" width="2.83" height="2.83"/><rect x="136.06" y="124.72" width="2.83" height="2.83"/><rect x="141.73" y="124.72" width="2.83" height="2.83"/><rect x="22.68" y="127.56" width="2.83" height="2.83"/><rect x="25.51" y="127.56" width="2.83" height="2.83"/><rect x="31.18" y="127.56" width="2.83" height="2.83"/><rect x="34.02" y="127.56" width="2.83" height="2.83"/><rect x="36.85" y="127.56" width="2.83" height="2.83"/><rect x="42.52" y="127.56" width="2.83" height="2.83"/><rect x="48.19" y="127.56" width="2.83" height="2.83"/><rect x="56.69" y="127.56" width="2.83" height="2.83"/><rect x="59.53" y="127.56" width="2.83" height="2.83"/><rect x="62.36" y="127.56" width="2.83" height="2.83"/><rect x="68.03" y="127.56" width="2.83" height="2.83"/><rect x="79.37" y="127.56" width="2.83" height="2.83"/><rect x="82.2" y="127.56" width="2.83" height="2.83"/><rect x="85.04" y="127.56" width="2.83" height="2.83"/><rect x="87.87" y="127.56" width="2.83" height="2.83"/><rect x="90.71" y="127.56" width="2.83" height="2.83"/><rect x="96.38" y="127.56" width="2.83" height="2.83"/><rect x="99.21" y="127.56" width="2.83" height="2.83"/><rect x="102.05" y="127.56" width="2.83" height="2.83"/><rect x="104.88" y="127.56" width="2.83" height="2.83"/><rect x="107.72" y="127.56" width="2.83" height="2.83"/><rect x="110.55" y="127.56" width="2.83" height="2.83"/><rect x="113.39" y="127.56" width="2.83" height="2.83"/><rect x="121.89" y="127.56" width="2.83" height="2.83"/><rect x="124.72" y="127.56" width="2.83" height="2.83"/><rect x="136.06" y="127.56" width="2.83" height="2.83"/><rect x="138.9" y="127.56" width="2.83" height="2.83"/><rect x="141.73" y="127.56" width="2.83" height="2.83"/><rect y="130.39" width="2.83" height="2.83"/><rect x="2.83" y="130.39" width="2.83" height="2.83"/><rect x="5.67" y="130.39" width="2.83" height="2.83"/><rect x="8.5" y="130.39" width="2.83" height="2.83"/><rect x="11.34" y="130.39" width="2.83" height="2.83"/><rect x="14.17" y="130.39" width="2.83" height="2.83"/><rect x="17.01" y="130.39" width="2.83" height="2.83"/><rect x="22.68" y="130.39" width="2.83" height="2.83"/><rect x="25.51" y="130.39" width="2.83" height="2.83"/><rect x="28.35" y="130.39" width="2.83" height="2.83"/><rect x="36.85" y="130.39" width="2.83" height="2.83"/><rect x="39.69" y="130.39" width="2.83" height="2.83"/><rect x="45.35" y="130.39" width="2.83" height="2.83"/><rect x="51.02" y="130.39" width="2.83" height="2.83"/><rect x="53.86" y="130.39" width="2.83" height="2.83"/><rect x="56.69" y="130.39" width="2.83" height="2.83"/><rect x="59.53" y="130.39" width="2.83" height="2.83"/><rect x="62.36" y="130.39" width="2.83" height="2.83"/><rect x="65.2" y="130.39" width="2.83" height="2.83"/><rect x="68.03" y="130.39" width="2.83" height="2.83"/><rect x="73.7" y="130.39" width="2.83" height="2.83"/><rect x="79.37" y="130.39" width="2.83" height="2.83"/><rect x="87.87" y="130.39" width="2.83" height="2.83"/><rect x="96.38" y="130.39" width="2.83" height="2.83"/><rect x="99.21" y="130.39" width="2.83" height="2.83"/><rect x="110.55" y="130.39" width="2.83" height="2.83"/><rect x="113.39" y="130.39" width="2.83" height="2.83"/><rect x="116.22" y="130.39" width="2.83" height="2.83"/><rect x="119.06" y="130.39" width="2.83" height="2.83"/><rect x="124.72" y="130.39" width="2.83" height="2.83"/><rect x="130.39" y="130.39" width="2.83" height="2.83"/><rect x="136.06" y="130.39" width="2.83" height="2.83"/><rect x="138.9" y="130.39" width="2.83" height="2.83"/><rect x="141.73" y="130.39" width="2.83" height="2.83"/><rect x="147.4" y="130.39" width="2.83" height="2.83"/><rect y="133.23" width="2.83" height="2.83"/><rect x="17.01" y="133.23" width="2.83" height="2.83"/><rect x="25.51" y="133.23" width="2.83" height="2.83"/><rect x="31.18" y="133.23" width="2.83" height="2.83"/><rect x="45.35" y="133.23" width="2.83" height="2.83"/><rect x="51.02" y="133.23" width="2.83" height="2.83"/><rect x="62.36" y="133.23" width="2.83" height="2.83"/><rect x="68.03" y="133.23" width="2.83" height="2.83"/><rect x="79.37" y="133.23" width="2.83" height="2.83"/><rect x="82.2" y="133.23" width="2.83" height="2.83"/><rect x="93.54" y="133.23" width="2.83" height="2.83"/><rect x="96.38" y="133.23" width="2.83" height="2.83"/><rect x="113.39" y="133.23" width="2.83" height="2.83"/><rect x="116.22" y="133.23" width="2.83" height="2.83"/><rect x="119.06" y="133.23" width="2.83" height="2.83"/><rect x="124.72" y="133.23" width="2.83" height="2.83"/><rect x="136.06" y="133.23" width="2.83" height="2.83"/><rect y="136.06" width="2.83" height="2.83"/><rect x="5.67" y="136.06" width="2.83" height="2.83"/><rect x="8.5" y="136.06" width="2.83" height="2.83"/><rect x="11.34" y="136.06" width="2.83" height="2.83"/><rect x="17.01" y="136.06" width="2.83" height="2.83"/><rect x="22.68" y="136.06" width="2.83" height="2.83"/><rect x="25.51" y="136.06" width="2.83" height="2.83"/><rect x="28.35" y="136.06" width="2.83" height="2.83"/><rect x="34.02" y="136.06" width="2.83" height="2.83"/><rect x="39.69" y="136.06" width="2.83" height="2.83"/><rect x="65.2" y="136.06" width="2.83" height="2.83"/><rect x="68.03" y="136.06" width="2.83" height="2.83"/><rect x="70.87" y="136.06" width="2.83" height="2.83"/><rect x="73.7" y="136.06" width="2.83" height="2.83"/><rect x="76.54" y="136.06" width="2.83" height="2.83"/><rect x="79.37" y="136.06" width="2.83" height="2.83"/><rect x="85.04" y="136.06" width="2.83" height="2.83"/><rect x="87.87" y="136.06" width="2.83" height="2.83"/><rect x="90.71" y="136.06" width="2.83" height="2.83"/><rect x="93.54" y="136.06" width="2.83" height="2.83"/><rect x="110.55" y="136.06" width="2.83" height="2.83"/><rect x="121.89" y="136.06" width="2.83" height="2.83"/><rect x="124.72" y="136.06" width="2.83" height="2.83"/><rect x="127.56" y="136.06" width="2.83" height="2.83"/><rect x="130.39" y="136.06" width="2.83" height="2.83"/><rect x="133.23" y="136.06" width="2.83" height="2.83"/><rect x="136.06" y="136.06" width="2.83" height="2.83"/><rect x="138.9" y="136.06" width="2.83" height="2.83"/><rect x="141.73" y="136.06" width="2.83" height="2.83"/><rect y="138.9" width="2.83" height="2.83"/><rect x="5.67" y="138.9" width="2.83" height="2.83"/><rect x="8.5" y="138.9" width="2.83" height="2.83"/><rect x="11.34" y="138.9" width="2.83" height="2.83"/><rect x="17.01" y="138.9" width="2.83" height="2.83"/><rect x="28.35" y="138.9" width="2.83" height="2.83"/><rect x="31.18" y="138.9" width="2.83" height="2.83"/><rect x="39.69" y="138.9" width="2.83" height="2.83"/><rect x="53.86" y="138.9" width="2.83" height="2.83"/><rect x="59.53" y="138.9" width="2.83" height="2.83"/><rect x="70.87" y="138.9" width="2.83" height="2.83"/><rect x="73.7" y="138.9" width="2.83" height="2.83"/><rect x="79.37" y="138.9" width="2.83" height="2.83"/><rect x="82.2" y="138.9" width="2.83" height="2.83"/><rect x="85.04" y="138.9" width="2.83" height="2.83"/><rect x="87.87" y="138.9" width="2.83" height="2.83"/><rect x="90.71" y="138.9" width="2.83" height="2.83"/><rect x="96.38" y="138.9" width="2.83" height="2.83"/><rect x="99.21" y="138.9" width="2.83" height="2.83"/><rect x="107.72" y="138.9" width="2.83" height="2.83"/><rect x="119.06" y="138.9" width="2.83" height="2.83"/><rect x="130.39" y="138.9" width="2.83" height="2.83"/><rect x="133.23" y="138.9" width="2.83" height="2.83"/><rect x="136.06" y="138.9" width="2.83" height="2.83"/><rect x="138.9" y="138.9" width="2.83" height="2.83"/><rect x="141.73" y="138.9" width="2.83" height="2.83"/><rect y="141.73" width="2.83" height="2.83"/><rect x="5.67" y="141.73" width="2.83" height="2.83"/><rect x="8.5" y="141.73" width="2.83" height="2.83"/><rect x="11.34" y="141.73" width="2.83" height="2.83"/><rect x="17.01" y="141.73" width="2.83" height="2.83"/><rect x="31.18" y="141.73" width="2.83" height="2.83"/><rect x="34.02" y="141.73" width="2.83" height="2.83"/><rect x="36.85" y="141.73" width="2.83" height="2.83"/><rect x="42.52" y="141.73" width="2.83" height="2.83"/><rect x="48.19" y="141.73" width="2.83" height="2.83"/><rect x="51.02" y="141.73" width="2.83" height="2.83"/><rect x="62.36" y="141.73" width="2.83" height="2.83"/><rect x="68.03" y="141.73" width="2.83" height="2.83"/><rect x="76.54" y="141.73" width="2.83" height="2.83"/><rect x="79.37" y="141.73" width="2.83" height="2.83"/><rect x="93.54" y="141.73" width="2.83" height="2.83"/><rect x="96.38" y="141.73" width="2.83" height="2.83"/><rect x="99.21" y="141.73" width="2.83" height="2.83"/><rect x="102.05" y="141.73" width="2.83" height="2.83"/><rect x="107.72" y="141.73" width="2.83" height="2.83"/><rect x="110.55" y="141.73" width="2.83" height="2.83"/><rect x="113.39" y="141.73" width="2.83" height="2.83"/><rect x="116.22" y="141.73" width="2.83" height="2.83"/><rect x="119.06" y="141.73" width="2.83" height="2.83"/><rect x="121.89" y="141.73" width="2.83" height="2.83"/><rect x="136.06" y="141.73" width="2.83" height="2.83"/><rect x="141.73" y="141.73" width="2.83" height="2.83"/><rect x="144.57" y="141.73" width="2.83" height="2.83"/><rect x="147.4" y="141.73" width="2.83" height="2.83"/><rect y="144.57" width="2.83" height="2.83"/><rect x="17.01" y="144.57" width="2.83" height="2.83"/><rect x="25.51" y="144.57" width="2.83" height="2.83"/><rect x="31.18" y="144.57" width="2.83" height="2.83"/><rect x="39.69" y="144.57" width="2.83" height="2.83"/><rect x="42.52" y="144.57" width="2.83" height="2.83"/><rect x="56.69" y="144.57" width="2.83" height="2.83"/><rect x="62.36" y="144.57" width="2.83" height="2.83"/><rect x="70.87" y="144.57" width="2.83" height="2.83"/><rect x="76.54" y="144.57" width="2.83" height="2.83"/><rect x="79.37" y="144.57" width="2.83" height="2.83"/><rect x="85.04" y="144.57" width="2.83" height="2.83"/><rect x="87.87" y="144.57" width="2.83" height="2.83"/><rect x="93.54" y="144.57" width="2.83" height="2.83"/><rect x="99.21" y="144.57" width="2.83" height="2.83"/><rect x="107.72" y="144.57" width="2.83" height="2.83"/><rect x="110.55" y="144.57" width="2.83" height="2.83"/><rect x="113.39" y="144.57" width="2.83" height="2.83"/><rect x="116.22" y="144.57" width="2.83" height="2.83"/><rect x="124.72" y="144.57" width="2.83" height="2.83"/><rect x="130.39" y="144.57" width="2.83" height="2.83"/><rect x="133.23" y="144.57" width="2.83" height="2.83"/><rect x="136.06" y="144.57" width="2.83" height="2.83"/><rect x="141.73" y="144.57" width="2.83" height="2.83"/><rect x="144.57" y="144.57" width="2.83" height="2.83"/><rect x="147.4" y="144.57" width="2.83" height="2.83"/><rect y="147.4" width="2.83" height="2.83"/><rect x="2.83" y="147.4" width="2.83" height="2.83"/><rect x="5.67" y="147.4" width="2.83" height="2.83"/><rect x="8.5" y="147.4" width="2.83" height="2.83"/><rect x="11.34" y="147.4" width="2.83" height="2.83"/><rect x="14.17" y="147.4" width="2.83" height="2.83"/><rect x="17.01" y="147.4" width="2.83" height="2.83"/><rect x="22.68" y="147.4" width="2.83" height="2.83"/><rect x="25.51" y="147.4" width="2.83" height="2.83"/><rect x="34.02" y="147.4" width="2.83" height="2.83"/><rect x="36.85" y="147.4" width="2.83" height="2.83"/><rect x="45.35" y="147.4" width="2.83" height="2.83"/><rect x="48.19" y="147.4" width="2.83" height="2.83"/><rect x="51.02" y="147.4" width="2.83" height="2.83"/><rect x="53.86" y="147.4" width="2.83" height="2.83"/><rect x="56.69" y="147.4" width="2.83" height="2.83"/><rect x="68.03" y="147.4" width="2.83" height="2.83"/><rect x="70.87" y="147.4" width="2.83" height="2.83"/><rect x="76.54" y="147.4" width="2.83" height="2.83"/><rect x="79.37" y="147.4" width="2.83" height="2.83"/><rect x="90.71" y="147.4" width="2.83" height="2.83"/><rect x="107.72" y="147.4" width="2.83" height="2.83"/><rect x="113.39" y="147.4" width="2.83" height="2.83"/><rect x="121.89" y="147.4" width="2.83" height="2.83"/><rect x="124.72" y="147.4" width="2.83" height="2.83"/><rect x="127.56" y="147.4" width="2.83" height="2.83"/><rect x="130.39" y="147.4" width="2.83" height="2.83"/><rect x="141.73" y="147.4" width="2.83" height="2.83"/><rect x="144.57" y="147.4" width="2.83" height="2.83"/><rect class="cls-1" x="63.26" y="62.36" width="24.6" height="25.3"/><rect x="66.71" y="66.16" width="17.7" height="17.7"/><polygon class="cls-1" points="81.06 73.76 77.16 73.76 77.16 69.66 73.96 69.66 73.96 73.76 70.06 73.76 70.06 76.26 73.96 76.26 73.96 80.36 77.16 80.36 77.16 76.26 81.06 76.26 81.06 73.76"/></svg>